<svg xmlns="http://www.w3.org/2000/svg" viewBox="0 0 35 20"><title>American Express</title><path d="M35,10.82405V0H0V20H35V14.16481c-.078,0,0-3.34076,0-3.34076" fill="#006fcf" width="35" height="20" /><path d="M30.71269,8.96854H33.363v-6.036H30.47884V3.773l-.54566-.84045H27.43875V4.00225L26.971,2.93259h-4.5991c-.1559,0-.31181.07641-.46771.07641s-.23385.0764-.38975.1528-.23385.07641-.38975.15281v-.382H7.951l-.38975.99325L7.1715,2.93259H4.05345V4.00225l-.4677-1.06966H1.09132L0,5.53034v3.4382H1.79287l.31181-.84044h.62361l.3118.84044H16.75946v-.764l.54566.76405h3.8196V8.51012c.078.07641.23385.07641.31181.15281s.23385.0764.3118.15281a1.0065,1.0065,0,0,0,.4677.0764h2.80624l.3118-.84045h.62361l.31181.84045h3.8196v-.764ZM35,16.609V10.95506H13.56347l-.54566.764-.54565-.764H6.23608V16.991h6.23608l.54566-.764.54565.764H17.461V15.69213h-.15591a3.84482,3.84482,0,0,0,1.40312-.22922v1.6045h2.80623v-.764l.54566.764h11.6147A6.72272,6.72272,0,0,0,35,16.609Z" fill="#fff"/><path d="M33.67483,15.1573H31.57015v.84045h2.02673A1.279,1.279,0,0,0,35,14.69888c0-.76405-.46771-1.14607-1.24722-1.14607h-.93541a.3821.3821,0,1,1-.01525-.764q.00762-.00015.01525,0h1.79288L35,11.94832H32.89532a1.26553,1.26553,0,0,0-1.40312,1.22247c0,.764.46771,1.14606,1.24722,1.14606h.93541a.36464.36464,0,0,1,.38975.382C34.14254,15.0045,33.98663,15.1573,33.67483,15.1573Zm-3.8196,0H27.75056v.84045h2.02672a1.279,1.279,0,0,0,1.40312-1.29887c0-.76405-.46771-1.14607-1.24722-1.14607h-.93541a.3821.3821,0,1,1-.01525-.764q.00762-.00015.01525,0h1.79287l.38975-.84045H29.07572a1.26553,1.26553,0,0,0-1.40312,1.22247c0,.764.4677,1.14606,1.24721,1.14606h.93542a.36464.36464,0,0,1,.38975.382.35857.35857,0,0,1-.38975.45842ZM27.127,12.71236v-.84045H23.853v4.04944h3.27394v-.84046H24.78842v-.84045H27.049V13.4H24.78842V12.636H27.127Zm-5.30067,0c.38975,0,.54566.22921.54566.45842s-.1559.45843-.54566.45843H20.657V12.636ZM20.657,14.46966h.46771l1.24722,1.45168H23.5412l-1.40312-1.52809a1.23294,1.23294,0,0,0,1.09132-1.22247,1.279,1.279,0,0,0-1.40312-1.29887H19.64366v4.04944h.93541Zm-2.49443-1.22247a.48737.48737,0,0,1-.54566.53483H16.36971V12.71236H17.539a.55183.55183,0,0,1,.62361.53483ZM15.4343,11.87191v4.04944h.93541V14.54606h1.24721A1.35988,1.35988,0,0,0,19.098,13.17078a1.33709,1.33709,0,0,0-1.29667-1.37634q-.05322-.00159-.10644.00106Zm-1.40312,4.04944h1.16927l-1.637-2.06292,1.637-1.98652H14.03118l-1.01336,1.29888-1.01337-1.29888H10.83519l1.637,1.98652-1.637,1.98651h1.16926l1.01337-1.29888Zm-3.50779-3.209v-.84044H7.24944v4.04944h3.27395v-.84046H8.18486v-.84045h2.26057V13.4H8.18486V12.636h2.33853Zm18.94209-7.182,1.637,2.44494h1.16926V3.92585H31.3363V6.6l-.23385-.382L29.62138,3.92585H28.37416V7.97528h.93542V5.22472ZM25.412,5.45393l.3118-.84045.31181.84045.38975.91685H25.02227Zm1.637,2.52135h1.01336L26.2695,3.92585H25.02229L23.2294,7.97528h1.01336l.38975-.84045h2.02673Zm-4.36525,0,.38975-.84045h-.23385a1.034,1.034,0,0,1-1.09132-1.14606V5.91236A1.034,1.034,0,0,1,22.83965,4.7663H23.853V3.92585H22.76169a1.842,1.842,0,0,0-1.94877,1.98651v.07641A1.78545,1.78545,0,0,0,22.68375,7.97528Zm-3.5078,0h.93542v-3.973h-.93543Zm-2.02672-3.209c.38975,0,.54566.22921.54566.45842s-.15591.45843-.54566.45843H15.98V4.6899ZM15.98,6.5236h.46771l1.24722,1.45168h1.16926L17.461,6.44719a1.233,1.233,0,0,0,1.09132-1.22247,1.279,1.279,0,0,0-1.40312-1.29887H14.96659V7.97528H15.902ZM14.265,4.7663V3.92585h-3.274V7.97528H14.265V7.13483H11.9265V6.29438h2.26058V5.45394H11.9265V4.68989H14.265ZM7.1715,7.97528H8.029L9.19821,4.68989V7.97528h.93542V3.92585h-1.559L7.6392,6.67641,6.70379,3.92585h-1.559V7.97528h.93541V4.68989ZM2.10467,5.45394l.31181-.84044.3118.84045L3.118,6.3708H1.71492Zm1.637,2.52134H4.755L2.96214,3.92585H1.79289L0,7.97529H1.01336l.38975-.84045H3.42984Z" fill="#006fcf"/></svg>