<svg xmlns="http://www.w3.org/2000/svg" viewBox="0 0 31.63 20"><defs><style>.cls-1{fill:#fff;}.cls-2{fill:#ff5f00;}.cls-3{fill:#eb001b;}.cls-4{fill:#f79e1b;}</style></defs><title>Asset 3</title><g id="Layer_2" data-name="Layer 2"><g id="Layer_1-2" data-name="Layer 1"><g id="Layer_2-2" data-name="Layer 2"><g id="Layer_1-2-2" data-name="Layer 1-2"><rect id="_Path_" data-name=" Path " width="31.63" height="20"/><path id="_Compound_Path_" data-name=" Compound Path " class="cls-1" d="M8.83,18.33V17.2a.66.66,0,0,0-.6-.71H8.14a.72.72,0,0,0-.63.32.66.66,0,0,0-.6-.32.65.65,0,0,0-.54.26v-.21H6v1.79h.37v-1a.43.43,0,0,1,.38-.48h.07c.26,0,.41.17.41.48v1h.36v-1A.44.44,0,0,1,8,16.82h.07c.26,0,.41.17.41.48v1Zm5.86-1.79H14V16h-.36v.55h-.38v.32h.38v.85c0,.42.14.67.6.67a.91.91,0,0,0,.49-.14l-.11-.32a.68.68,0,0,1-.35.1c-.18,0-.27-.12-.27-.3v-.86h.65ZM18,16.49a.61.61,0,0,0-.49.26v-.21h-.35v1.79h.36v-1c0-.3.14-.49.4-.49a.52.52,0,0,1,.24.05l.12-.34a.66.66,0,0,0-.28-.05Zm-5,.19a1.35,1.35,0,0,0-.73-.19c-.46,0-.74.21-.74.56s.21.47.61.53l.19,0c.21,0,.33.1.33.2s-.16.23-.43.23a1,1,0,0,1-.6-.19l-.18.29a1.42,1.42,0,0,0,.77.23c.52,0,.81-.24.81-.58s-.22-.48-.61-.53l-.19,0c-.17,0-.32-.07-.32-.19s.15-.22.36-.22a1.21,1.21,0,0,1,.56.16Zm5.45.75a.89.89,0,0,0,.85.94h.09a.94.94,0,0,0,.64-.22l-.18-.28a.74.74,0,0,1-.47.16.61.61,0,0,1-.56-.66.6.6,0,0,1,.56-.55.74.74,0,0,1,.47.16l.18-.29a1,1,0,0,0-.64-.21.9.9,0,0,0-.94.85v.09Zm-2.53-.94a.87.87,0,0,0-.89.94.89.89,0,0,0,.83.94h.08a1.11,1.11,0,0,0,.74-.25l-.19-.27A.83.83,0,0,1,16,18a.52.52,0,0,1-.54-.46h1.34v-.15a.85.85,0,0,0-.85-.94Zm0,.33a.47.47,0,0,1,.47.45h-1a.49.49,0,0,1,.49-.46ZM11,17.43v-.89h-.36v.21a.72.72,0,0,0-.58-.26.95.95,0,1,0,0,1.89.72.72,0,0,0,.58-.26v.21H11Zm-1.46,0a.58.58,0,0,1,.52-.61h.05a.61.61,0,0,1,0,1.22.57.57,0,0,1-.57-.56v-.05Zm13.89-.94a.58.58,0,0,0-.49.26v-.21h-.36v1.79H23v-1c0-.3.15-.49.4-.49a.56.56,0,0,1,.25.05l.12-.34a.92.92,0,0,0-.28-.05Zm2.89,1.58.08,0,.05,0,0,.06a.17.17,0,0,1,0,.14l0,.06a.09.09,0,0,1-.05,0l-.08,0a.18.18,0,0,1-.16-.25l0-.06.05,0,.07,0Zm0,.32h.06l0,0a.14.14,0,0,0,0-.19l0,0H26.3l0,0a.14.14,0,0,0,0,.19l0,0Zm0-.22h0a0,0,0,0,1,0,0s0,0,0,0h0l.05.07h0l-.05-.07h0v.07h0v-.17Zm-.05,0v.05h.07v0h-.07Zm-4.25-.76v-.9h-.36v.21a.72.72,0,0,0-.58-.26.95.95,0,0,0,0,1.89.72.72,0,0,0,.58-.26v.21h.36Zm-1.45,0a.55.55,0,0,1,.51-.61h.05a.61.61,0,0,1,.55.66.62.62,0,0,1-.55.56.58.58,0,0,1-.57-.57s0,0,0,0Zm5.08,0V15.81h-.36v.94a.69.69,0,0,0-.58-.26.94.94,0,1,0,0,1.88.69.69,0,0,0,.58-.26v.22h.36Zm-1.45,0a.55.55,0,0,1,.51-.61h0a.61.61,0,0,1,.51.69.62.62,0,0,1-.52.52.56.56,0,0,1-.56-.56v-.05Z"/><g id="_Group_" data-name=" Group "><rect class="cls-2" x="12.85" y="2.84" width="5.92" height="10.64"/><path id="_Path_2" data-name=" Path 2" class="cls-3" d="M13.23,8.16a6.75,6.75,0,0,1,2.58-5.31,6.76,6.76,0,1,0,0,10.63A6.76,6.76,0,0,1,13.23,8.16Z"/><path class="cls-4" d="M26.12,12.36v-.22h.09v-.05H26v.05h.09v.22Zm.43,0v-.27h-.07l-.07.19-.08-.19h-.07v.27h0v-.2l.07.17h.05l.07-.17v.2Z"/><path class="cls-4" d="M26.76,8.16a6.76,6.76,0,0,1-11,5.32,6.77,6.77,0,0,0,0-10.64,6.77,6.77,0,0,1,11,5.32Z"/></g></g></g></g></g></svg>