<svg xmlns="http://www.w3.org/2000/svg" xmlns:xlink="http://www.w3.org/1999/xlink" viewBox="0 0 31.58 20.1"><defs><style>.cls-1,.cls-6{fill:none;}.cls-2{clip-path:url(#clip-path);}.cls-3{fill:#fff;}.cls-4{fill:#f7b600;}.cls-5{fill:#1a1f71;}.cls-6{stroke:#1a1f71;stroke-miterlimit:10;stroke-width:0.1px;}</style><clipPath id="clip-path"><rect class="cls-1" x="0.05" y="0.05" width="31.48" height="20"/></clipPath></defs><title>Asset 6</title><g id="Layer_2" data-name="Layer 2"><g id="Layer_1-2" data-name="Layer 1"><g class="cls-2"><rect class="cls-3" x="0.05" y="0.05" width="31.48" height="20"/><rect class="cls-4" x="0.57" y="16.8" width="30.44" height="2.73"/><rect class="cls-5" x="0.57" y="0.57" width="30.44" height="2.73"/><path class="cls-5" d="M12.76,6.31l-3.15,7.5h-2L6,7.82a.79.79,0,0,0-.46-.65,7.37,7.37,0,0,0-1.91-.64l0-.22H7a.9.9,0,0,1,.89.76l.82,4.34,2-5.1Zm8,5.05c0-2-2.73-2.09-2.71-3,0-.27.26-.56.82-.63a3.53,3.53,0,0,1,1.91.34l.34-1.6a5.47,5.47,0,0,0-1.81-.33c-1.92,0-3.27,1-3.28,2.48,0,1.08,1,1.68,1.7,2s1,.61,1,.93c0,.51-.6.73-1.16.74a4.13,4.13,0,0,1-2-.47l-.35,1.64a5.83,5.83,0,0,0,2.15.4c2,0,3.38-1,3.38-2.57m5.07,2.45h1.79l-1.56-7.5H24.43a.9.9,0,0,0-.83.55l-2.91,7h2l.4-1.12h2.49Zm-2.17-2.66,1-2.81.59,2.81ZM15.53,6.31l-1.6,7.5H12l1.61-7.5Z"/></g><rect class="cls-6" x="0.05" y="0.05" width="31.48" height="20"/></g></g></svg>